Coordinates
version=1
nRows=9
nColumns=24
inDegrees=yes

Units are S.I. units (second, meters, Newtons, ...)
Angles are in degrees.

endheader
time	pelvis_tilt	pelvis_list	pelvis_rotation	pelvis_tx	pelvis_ty	pelvis_tz	hip_flexion_r	hip_adduction_r	hip_rotation_r	knee_angle_r	ankle_angle_r	subtalar_angle_r	mtp_angle_r	hip_flexion_l	hip_adduction_l	hip_rotation_l	knee_angle_l	ankle_angle_l	subtalar_angle_l	mtp_angle_l	lumbar_extension	lumbar_bending	lumbar_rotation
      0.52900000	      0.80079841	      9.41808099	     -2.35409381	     -0.84641531	      0.98106750	      0.29723599	     23.70436604	     -8.12181231	     -2.38843268	      0.54851418	      4.36037899	      0.65899051	      0.61302919	    -20.07331554	     15.15235566	     10.80502530	     -0.13794783	      8.92580934	    -14.80213474	      0.05839693	    -13.14906709	     -1.67269830	    -10.12508257
      0.53316667	      0.74422334	      9.29684367	     -2.33654510	     -0.84077141	      0.98018347	      0.29738316	     23.66820609	     -7.93200238	     -1.98287837	      0.54983429	      4.00106512	      0.33298935	      0.81518616	    -20.14537102	     15.03240361	     10.78901141	     -0.61263056	      9.21923196	    -14.62239910	      0.01053743	    -13.07120671	     -1.48255422	    -10.14220609
      0.53733333	      0.69629477	      9.17904638	     -2.37118311	     -0.83513610	      0.97931517	      0.29759719	     23.69244384	     -7.73024871	     -1.54488816	      0.35780247	      3.68221166	      0.04248767	      1.11173301	    -20.16812543	     14.93788167	     10.57690610	     -1.18163764	      9.60222455	    -14.22767727	     -0.03413542	    -13.01299014	     -1.31902264	    -10.07017400
      0.54150000	      0.66327916	      9.03104367	     -2.38936977	     -0.82949399	      0.97851978	      0.29779096	     23.69068869	     -7.50960659	     -1.10580448	      0.10671245	      3.35410966	     -0.24844938	      1.47497794	    -20.18677934	     14.81158483	     10.37980151	     -1.80561179	      9.97392727	    -13.86899936	     -0.06005179	    -12.98482693	     -1.11082359	    -10.03259358
      0.54566667	      0.56903721	      8.86075937	     -2.39577456	     -0.82378080	      0.97769597	      0.29797642	     23.77385780	     -7.26469996	     -0.69023986	     -0.25716053	      2.94902034	     -0.61246178	      1.70410199	    -20.14957617	     14.66047542	     10.26398093	     -2.40925152	     10.28621381	    -13.62929133	     -0.04963930	    -12.85478840	     -0.86945578	     -9.94978703
      0.54983333	      0.51316458	      8.66945775	     -2.42064540	     -0.81808307	      0.97695013	      0.29820709	     23.81748303	     -6.99459513	     -0.21360391	     -0.67077962	      2.51102344	     -1.07298786	      1.93418264	    -20.11477542	     14.49675418	     10.05226758	     -3.08828894	     10.62508161	    -13.30585282	     -0.01665148	    -12.78486721	     -0.60298696	     -9.87700751
      0.55400000	      0.46556171	      8.46869579	     -2.44552329	     -0.81236684	      0.97625819	      0.29845782	     23.86328735	     -6.71532806	      0.25830702	     -1.15423337	      2.04954947	     -1.55846707	      2.20201461	    -20.05250360	     14.32574316	      9.78947175	     -3.83557976	     10.95162623	    -12.95341497	      0.05351993	    -12.74212617	     -0.34230449	     -9.79710296
      0.55816667	      0.40267656	      8.24939286	     -2.47701574	     -0.80662491	      0.97557710	      0.29872763	     23.94289047	     -6.41204912	      0.73284954	     -1.71535640	      1.55987179	     -2.09485922	      2.48901019	    -19.96349723	     14.13935487	      9.52809700	     -4.60470564	     11.26523224	    -12.61631582	      0.16512816	    -12.66341493	     -0.04501674	     -9.70803304
      0.56233333	      0.30425369	      8.01998605	     -2.51323571	     -0.80084225	      0.97487890	      0.29900708	     24.09015248	     -6.09198380	      1.18177362	     -2.37403590	      1.04452210	     -2.64459541	      2.67365021	    -19.84684838	     13.94710711	      9.33317807	     -5.34894098	     11.48901509	    -12.40243067	      0.26939585	    -12.52512974	      0.26564308	     -9.60433974
